<svg width="256" height="256" viewBox="0 0 256 256" fill="none" xmlns="http://www.w3.org/2000/svg">
<rect width="256" height="256" rx="42" fill="#DEE2E6"/>
<path d="M59.0571 94.4124C56.1182 91.4735 51.3894 91.4735 48.4505 94.4124C45.5116 97.3513 45.5116 102.08 48.4505 105.019L57.2893 113.858C49.489 121.658 49.489 134.342 57.2893 142.142L48.4505 150.981C45.5116 153.92 45.5116 158.649 48.4505 161.588C51.3894 164.526 56.1182 164.526 59.0571 161.588L67.8959 152.749L80.2703 165.123L71.4315 173.962C68.4925 176.901 68.4925 181.63 71.4315 184.569C74.3704 187.507 79.0991 187.507 82.0381 184.569L90.8769 175.73L103.251 188.104L94.4124 196.943C91.4735 199.882 91.4735 204.611 94.4124 207.55C97.3513 210.488 102.08 210.488 105.019 207.55L113.858 198.711C121.658 206.511 134.342 206.511 142.142 198.711L150.981 207.55C153.92 210.488 158.649 210.488 161.588 207.55C164.526 204.611 164.526 199.882 161.588 196.943L152.749 188.104L165.123 175.73L173.962 184.569C176.901 187.507 181.63 187.507 184.569 184.569C187.507 181.63 187.507 176.901 184.569 173.962L175.73 165.123L188.104 152.749L196.943 161.588C199.882 164.526 204.611 164.526 207.549 161.588C210.488 158.649 210.488 153.92 207.549 150.981L198.711 142.142C206.511 134.342 206.511 121.658 198.711 113.858L207.549 105.019C210.488 102.08 210.488 97.3513 207.549 94.4124C204.611 91.4735 199.882 91.4735 196.943 94.4124L188.104 103.251L175.73 90.8769L184.569 82.0381C187.507 79.0992 187.507 74.3704 184.569 71.4315C181.63 68.4926 176.901 68.4926 173.962 71.4315L165.123 80.2703L152.749 67.8959L161.588 59.0571C164.526 56.1182 164.526 51.3894 161.588 48.4505C158.649 45.5116 153.92 45.5116 150.981 48.4505L142.142 57.2893C134.342 49.4891 121.658 49.4891 113.858 57.2893L105.019 48.4505C102.08 45.5116 97.3513 45.5116 94.4124 48.4505C91.4735 51.3894 91.4735 56.1182 94.4124 59.0571L103.251 67.8959L90.8769 80.2703L82.0381 71.4315C79.0991 68.4926 74.3704 68.4926 71.4315 71.4315C68.4925 74.3704 68.4925 79.0992 71.4315 82.0381L80.2703 90.8769L67.8959 103.251L59.0571 94.4124ZM78.5025 120.929L120.929 78.5025C124.84 74.5913 131.16 74.5913 135.071 78.5025L177.497 120.929C181.409 124.84 181.409 131.16 177.497 135.071L135.071 177.497C131.16 181.409 124.84 181.409 120.929 177.497L78.5025 135.071C74.5913 131.16 74.5913 124.84 78.5025 120.929ZM92.6447 128L128 163.355L163.355 128L128 92.6447L92.6447 128Z" fill="#212529"/>
</svg>
