<svg width="100" height="100" viewBox="0 0 100 100" fill="none" xmlns="http://www.w3.org/2000/svg">
<path d="M75 42.5C75 49.6719 72.6719 56.2969 68.75 61.6719L88.5312 81.4688C90.4844 83.4219 90.4844 86.5938 88.5312 88.5469C86.5781 90.5 83.4062 90.5 81.4531 88.5469L61.6719 68.75C56.2969 72.6719 49.6719 75 42.5 75C24.5469 75 10 60.4531 10 42.5C10 24.5469 24.5469 10 42.5 10C60.4531 10 75 24.5469 75 42.5ZM42.5 65C54.9219 65 65 54.9219 65 42.5C65 30.0781 54.9219 20 42.5 20C30.0781 20 20 30.0781 20 42.5C20 54.9219 30.0781 65 42.5 65Z" fill="#AEB2B6"/>
</svg>
