<svg width="100" height="100" viewBox="0 0 100 100" fill="none" xmlns="http://www.w3.org/2000/svg">
<path d="M50 10C52.2969 10 54.4062 11.2656 55.5 13.2812L89.25 75.7812C90.2968 77.7187 90.25 80.0625 89.125 81.9531C88 83.8438 85.9531 85 83.75 85H16.25C14.0469 85 12 83.8438 10.875 81.9531C9.74999 80.0625 9.70312 77.7187 10.75 75.7812L44.5 13.2812C45.5937 11.2656 47.7031 10 50 10ZM50 65C47.2344 65 45 67.2344 45 70C45 72.7656 47.2344 75 50 75C52.7656 75 55 72.7656 55 70C55 67.2344 52.7656 65 50 65ZM50 35C47.1562 35 44.8906 37.4219 45.0937 40.2656L46.25 56.5156C46.3906 58.4688 48.0312 60 49.9844 60C51.9531 60 53.5781 58.4844 53.7187 56.5156L54.875 40.2656C55.0781 37.4219 52.8281 35 49.9687 35H50Z" fill="#EA868F"/>
</svg>
